<?xml version="1.0" encoding="iso-8859-1"?>
<!-- Generator: Adobe Illustrator 15.0.2, SVG Export Plug-In . SVG Version: 6.00 Build 0)  -->
<!DOCTYPE svg PUBLIC "-//W3C//DTD SVG 1.1//EN" "http://www.w3.org/Graphics/SVG/1.1/DTD/svg11.dtd">
<svg version="1.1" id="&#x5716;&#x5C64;_1" xmlns="http://www.w3.org/2000/svg" xmlns:xlink="http://www.w3.org/1999/xlink" x="0px"
	 y="0px" width="874.233px" height="93.908px" viewBox="0 0 874.233 93.908" style="enable-background:new 0 0 874.233 93.908;"
	 xml:space="preserve">
<g>
	<defs>
		<rect id="SVGID_1_" width="874.233" height="93.908"/>
	</defs>
	<clipPath id="SVGID_2_">
		<use xlink:href="#SVGID_1_"  style="overflow:visible;"/>
	</clipPath>
	<g style="clip-path:url(#SVGID_2_);">
		<path style="fill:#595757;" d="M148.291,22.696l0.538,11.414h-1.364c-0.264-2.01-0.623-3.446-1.077-4.307
			c-0.742-1.388-1.729-2.411-2.961-3.069c-1.232-0.658-2.854-0.987-4.863-0.987h-6.856v37.186c0,2.991,0.323,4.857,0.969,5.599
			c0.909,1.006,2.309,1.508,4.2,1.508h1.687v1.328h-20.639v-1.328h1.723c2.058,0,3.518-0.622,4.379-1.866
			c0.526-0.766,0.79-2.513,0.79-5.24V25.747h-5.851c-2.273,0-3.889,0.168-4.845,0.503c-1.245,0.455-2.31,1.328-3.195,2.62
			c-0.885,1.292-1.412,3.039-1.579,5.24h-1.364l0.574-11.414H148.291z"/>
		<path style="fill:#595757;" d="M167.248,66.629c-3.374,2.608-5.492,4.116-6.353,4.522c-1.292,0.599-2.668,0.897-4.128,0.897
			c-2.273,0-4.146-0.777-5.617-2.333c-1.472-1.555-2.208-3.601-2.208-6.138c0-1.603,0.359-2.99,1.077-4.163
			c0.981-1.627,2.686-3.159,5.115-4.595c2.428-1.436,6.466-3.182,12.114-5.24v-1.292c0-3.278-0.521-5.528-1.562-6.748
			c-1.041-1.221-2.554-1.831-4.541-1.831c-1.507,0-2.704,0.407-3.589,1.22c-0.91,0.814-1.364,1.747-1.364,2.8l0.072,2.082
			c0,1.101-0.281,1.951-0.843,2.548c-0.563,0.599-1.298,0.897-2.208,0.897c-0.886,0-1.61-0.311-2.172-0.934
			c-0.563-0.622-0.843-1.471-0.843-2.548c0-2.058,1.053-3.948,3.159-5.671c2.105-1.723,5.061-2.584,8.866-2.584
			c2.919,0,5.312,0.491,7.179,1.471c1.412,0.742,2.452,1.902,3.123,3.482c0.431,1.029,0.646,3.135,0.646,6.317v11.163
			c0,3.135,0.06,5.056,0.18,5.761c0.119,0.706,0.317,1.179,0.592,1.418c0.274,0.239,0.592,0.358,0.951,0.358
			c0.382,0,0.718-0.083,1.005-0.251c0.502-0.311,1.472-1.185,2.907-2.62v2.01c-2.68,3.59-5.24,5.385-7.681,5.385
			c-1.173,0-2.106-0.407-2.8-1.221C167.63,69.979,167.271,68.592,167.248,66.629z M167.248,64.296V51.77
			c-3.613,1.436-5.946,2.453-6.999,3.051c-1.891,1.054-3.243,2.153-4.056,3.302c-0.813,1.149-1.22,2.405-1.22,3.77
			c0,1.723,0.514,3.152,1.543,4.289c1.028,1.137,2.213,1.705,3.553,1.705C161.888,67.886,164.281,66.689,167.248,64.296z"/>
		<path style="fill:#595757;" d="M193.324,37.52v26.417c0,2.058,0.149,3.428,0.448,4.109c0.299,0.683,0.742,1.19,1.328,1.525
			c0.586,0.336,1.657,0.503,3.212,0.503v1.292h-15.972v-1.292c1.603,0,2.68-0.155,3.23-0.467c0.55-0.311,0.987-0.825,1.31-1.543
			c0.323-0.719,0.484-2.094,0.484-4.128V51.267c0-3.565-0.107-5.874-0.323-6.927c-0.167-0.765-0.431-1.297-0.79-1.597
			c-0.359-0.299-0.85-0.449-1.472-0.449c-0.67,0-1.484,0.18-2.44,0.539l-0.502-1.292l9.906-4.02H193.324z M190.345,20.327
			c1.005,0,1.86,0.354,2.566,1.059c0.706,0.706,1.059,1.562,1.059,2.566s-0.354,1.866-1.059,2.584
			c-0.706,0.718-1.561,1.077-2.566,1.077c-1.005,0-1.866-0.359-2.584-1.077c-0.718-0.718-1.077-1.58-1.077-2.584
			s0.353-1.86,1.059-2.566C188.448,20.68,189.316,20.327,190.345,20.327z"/>
		<path style="fill:#595757;" d="M200.771,41.755l10.122-4.092h1.364v7.681c1.699-2.895,3.404-4.923,5.115-6.084
			c1.71-1.161,3.511-1.741,5.402-1.741c3.302,0,6.054,1.292,8.255,3.876c2.704,3.158,4.056,7.274,4.056,12.347
			c0,5.672-1.627,10.361-4.881,14.07c-2.68,3.039-6.054,4.559-10.122,4.559c-1.771,0-3.302-0.251-4.594-0.754
			c-0.958-0.358-2.034-1.076-3.23-2.153v10.015c0,2.248,0.137,3.679,0.413,4.289c0.275,0.61,0.754,1.095,1.436,1.453
			c0.682,0.359,1.92,0.539,3.715,0.539v1.328h-17.229v-1.328h0.897c1.316,0.023,2.441-0.229,3.374-0.754
			c0.454-0.264,0.808-0.688,1.059-1.274c0.251-0.587,0.376-2.076,0.376-4.469V48.18c0-2.129-0.096-3.481-0.287-4.056
			s-0.497-1.005-0.915-1.292c-0.419-0.287-0.987-0.431-1.705-0.431c-0.574,0-1.304,0.167-2.189,0.502L200.771,41.755z
			 M212.257,47.462v12.275c0,2.656,0.108,4.403,0.323,5.241c0.334,1.388,1.154,2.608,2.458,3.661
			c1.304,1.053,2.949,1.579,4.936,1.579c2.392,0,4.331-0.934,5.814-2.8c1.938-2.44,2.907-5.874,2.907-10.302
			c0-5.024-1.101-8.889-3.302-11.593c-1.531-1.866-3.35-2.8-5.456-2.8c-1.148,0-2.285,0.287-3.41,0.862
			C215.667,44.017,214.243,45.309,212.257,47.462z"/>
		<path style="fill:#595757;" d="M246.157,50.872c-0.024,4.882,1.16,8.71,3.554,11.486c2.392,2.775,5.204,4.163,8.435,4.163
			c2.154,0,4.026-0.592,5.617-1.776s2.926-3.213,4.002-6.084l1.113,0.718c-0.503,3.278-1.962,6.264-4.379,8.955
			c-2.417,2.692-5.444,4.038-9.081,4.038c-3.949,0-7.329-1.537-10.14-4.612c-2.812-3.074-4.217-7.208-4.217-12.401
			c0-5.622,1.441-10.008,4.325-13.154c2.883-3.146,6.502-4.72,10.857-4.72c3.685,0,6.712,1.215,9.081,3.643
			c2.369,2.429,3.554,5.677,3.554,9.745H246.157z M246.157,48.79h15.219c-0.12-2.105-0.371-3.589-0.754-4.451
			c-0.598-1.34-1.489-2.393-2.674-3.158s-2.423-1.149-3.715-1.149c-1.987,0-3.763,0.772-5.33,2.315
			C247.335,43.891,246.42,46.039,246.157,48.79z"/>
		<path style="fill:#595757;" d="M285.334,37.52v26.417c0,2.058,0.149,3.428,0.448,4.109c0.299,0.683,0.742,1.19,1.328,1.525
			c0.586,0.336,1.657,0.503,3.212,0.503v1.292h-15.972v-1.292c1.603,0,2.68-0.155,3.23-0.467c0.55-0.311,0.987-0.825,1.31-1.543
			c0.323-0.719,0.484-2.094,0.484-4.128V51.267c0-3.565-0.107-5.874-0.323-6.927c-0.167-0.765-0.431-1.297-0.79-1.597
			c-0.359-0.299-0.85-0.449-1.472-0.449c-0.67,0-1.484,0.18-2.44,0.539l-0.502-1.292l9.906-4.02H285.334z M282.355,20.327
			c1.005,0,1.86,0.354,2.566,1.059c0.706,0.706,1.059,1.562,1.059,2.566s-0.354,1.866-1.059,2.584
			c-0.706,0.718-1.561,1.077-2.566,1.077c-1.005,0-1.866-0.359-2.584-1.077c-0.718-0.718-1.077-1.58-1.077-2.584
			s0.353-1.86,1.059-2.566C280.458,20.68,281.326,20.327,282.355,20.327z"/>
		<path style="fill:#595757;" d="M354.104,57.907l1.185,0.251l-4.164,13.209h-37.688v-1.328h1.831c2.058,0,3.529-0.67,4.415-2.01
			c0.502-0.766,0.753-2.536,0.753-5.313V31.31c0-3.039-0.335-4.941-1.005-5.707c-0.933-1.053-2.321-1.579-4.164-1.579h-1.831v-1.328
			h22.039v1.328c-2.584-0.023-4.397,0.215-5.438,0.718s-1.753,1.137-2.136,1.902c-0.383,0.766-0.574,2.597-0.574,5.492v30.581
			c0,1.986,0.191,3.351,0.574,4.092c0.287,0.503,0.73,0.874,1.328,1.113c0.598,0.239,2.464,0.358,5.6,0.358h3.553
			c3.733,0,6.353-0.274,7.861-0.825c1.507-0.551,2.883-1.525,4.127-2.926C351.616,63.13,352.86,60.922,354.104,57.907z"/>
		<path style="fill:#595757;" d="M378.529,66.629c-3.374,2.608-5.492,4.116-6.353,4.522c-1.292,0.599-2.668,0.897-4.128,0.897
			c-2.273,0-4.146-0.777-5.617-2.333c-1.472-1.555-2.208-3.601-2.208-6.138c0-1.603,0.359-2.99,1.077-4.163
			c0.981-1.627,2.686-3.159,5.115-4.595c2.428-1.436,6.466-3.182,12.114-5.24v-1.292c0-3.278-0.521-5.528-1.562-6.748
			c-1.041-1.221-2.554-1.831-4.541-1.831c-1.507,0-2.704,0.407-3.589,1.22c-0.91,0.814-1.364,1.747-1.364,2.8l0.072,2.082
			c0,1.101-0.281,1.951-0.843,2.548c-0.563,0.599-1.298,0.897-2.208,0.897c-0.886,0-1.61-0.311-2.172-0.934
			c-0.563-0.622-0.843-1.471-0.843-2.548c0-2.058,1.053-3.948,3.159-5.671c2.105-1.723,5.061-2.584,8.866-2.584
			c2.919,0,5.312,0.491,7.179,1.471c1.412,0.742,2.452,1.902,3.123,3.482c0.431,1.029,0.646,3.135,0.646,6.317v11.163
			c0,3.135,0.06,5.056,0.18,5.761c0.119,0.706,0.317,1.179,0.592,1.418c0.274,0.239,0.592,0.358,0.951,0.358
			c0.382,0,0.718-0.083,1.005-0.251c0.502-0.311,1.472-1.185,2.907-2.62v2.01c-2.68,3.59-5.24,5.385-7.681,5.385
			c-1.173,0-2.106-0.407-2.8-1.221C378.911,69.979,378.552,68.592,378.529,66.629z M378.529,64.296V51.77
			c-3.613,1.436-5.946,2.453-6.999,3.051c-1.891,1.054-3.243,2.153-4.056,3.302c-0.813,1.149-1.22,2.405-1.22,3.77
			c0,1.723,0.514,3.152,1.543,4.289c1.028,1.137,2.213,1.705,3.553,1.705C373.168,67.886,375.562,66.689,378.529,64.296z"/>
		<path style="fill:#595757;" d="M402.846,44.483c3.852-4.642,7.525-6.963,11.019-6.963c1.795,0,3.338,0.448,4.63,1.346
			c1.292,0.897,2.321,2.375,3.087,4.433c0.526,1.436,0.79,3.637,0.79,6.604v14.034c0,2.082,0.167,3.494,0.502,4.235
			c0.263,0.599,0.688,1.064,1.274,1.399c0.586,0.336,1.669,0.503,3.248,0.503v1.292h-16.26v-1.292h0.682
			c1.531,0,2.602-0.233,3.212-0.7s1.035-1.154,1.274-2.063c0.095-0.359,0.144-1.483,0.144-3.374v-13.46
			c0-2.991-0.389-5.163-1.167-6.515c-0.778-1.352-2.088-2.028-3.931-2.028c-2.848,0-5.683,1.556-8.506,4.666v17.337
			c0,2.226,0.131,3.602,0.395,4.128c0.335,0.694,0.795,1.202,1.382,1.525c0.586,0.322,1.777,0.484,3.572,0.484v1.292h-16.26v-1.292
			h0.718c1.675,0,2.805-0.425,3.392-1.274c0.586-0.849,0.879-2.471,0.879-4.863V51.733c0-3.948-0.09-6.353-0.27-7.214
			c-0.179-0.861-0.455-1.448-0.825-1.759c-0.372-0.311-0.868-0.467-1.49-0.467c-0.67,0-1.472,0.18-2.405,0.539l-0.539-1.292
			l9.907-4.02h1.543V44.483z"/>
		<path style="fill:#595757;" d="M439.473,59.379c-2.01-0.981-3.553-2.352-4.63-4.11c-1.077-1.758-1.615-3.702-1.615-5.832
			c0-3.254,1.226-6.054,3.679-8.399c2.453-2.345,5.593-3.517,9.421-3.517c3.135,0,5.851,0.766,8.148,2.297h6.963
			c1.028,0,1.627,0.03,1.795,0.09c0.167,0.06,0.287,0.162,0.358,0.305c0.144,0.215,0.216,0.598,0.216,1.148
			c0,0.623-0.061,1.053-0.18,1.292c-0.071,0.12-0.197,0.215-0.377,0.287s-0.784,0.108-1.813,0.108h-4.271
			c1.34,1.723,2.011,3.925,2.011,6.604c0,3.063-1.173,5.684-3.518,7.861c-2.346,2.178-5.492,3.266-9.44,3.266
			c-1.627,0-3.29-0.238-4.989-0.718c-1.053,0.91-1.765,1.705-2.136,2.387c-0.371,0.683-0.556,1.263-0.556,1.741
			c0,0.407,0.197,0.802,0.592,1.185s1.167,0.658,2.315,0.825c0.669,0.097,2.345,0.18,5.024,0.252
			c4.93,0.119,8.124,0.287,9.584,0.502c2.226,0.312,4.002,1.137,5.33,2.477c1.328,1.341,1.992,2.991,1.992,4.953
			c0,2.704-1.269,5.241-3.805,7.609c-3.733,3.494-8.603,5.241-14.608,5.241c-4.619,0-8.52-1.041-11.702-3.123
			c-1.794-1.197-2.692-2.44-2.692-3.733c0-0.574,0.131-1.148,0.395-1.723c0.406-0.886,1.244-2.117,2.512-3.697
			c0.167-0.215,1.388-1.507,3.661-3.876c-1.244-0.741-2.124-1.405-2.638-1.992c-0.515-0.586-0.771-1.25-0.771-1.992
			c0-0.837,0.341-1.818,1.023-2.943C435.435,63.028,437.008,61.438,439.473,59.379z M439.114,71.367
			c-1.125,1.221-1.975,2.356-2.549,3.41c-0.574,1.053-0.861,2.021-0.861,2.907c0,1.148,0.694,2.153,2.082,3.015
			c2.393,1.483,5.851,2.226,10.373,2.226c4.307,0,7.483-0.76,9.529-2.279s3.069-3.141,3.069-4.863c0-1.245-0.61-2.13-1.831-2.656
			c-1.244-0.526-3.709-0.838-7.394-0.934C446.149,72.049,442.009,71.773,439.114,71.367z M445.719,39.243
			c-1.771,0-3.255,0.706-4.451,2.118c-1.197,1.412-1.795,3.578-1.795,6.497c0,3.782,0.813,6.712,2.441,8.794
			c1.243,1.579,2.823,2.368,4.737,2.368c1.818,0,3.314-0.682,4.487-2.046c1.172-1.363,1.758-3.505,1.758-6.425
			c0-3.805-0.825-6.784-2.477-8.937C449.2,40.032,447.633,39.243,445.719,39.243z"/>
		<path style="fill:#595757;" d="M496.99,38.489V58.41c0,3.805,0.09,6.132,0.27,6.98c0.18,0.85,0.467,1.442,0.861,1.777
			s0.855,0.502,1.382,0.502c0.741,0,1.579-0.203,2.513-0.61l0.503,1.257l-9.835,4.056h-1.615v-6.963
			c-2.824,3.063-4.978,4.989-6.461,5.778c-1.484,0.79-3.051,1.185-4.702,1.185c-1.843,0-3.44-0.532-4.792-1.597
			s-2.291-2.435-2.817-4.11c-0.526-1.675-0.79-4.044-0.79-7.106V44.878c0-1.555-0.167-2.632-0.502-3.23
			c-0.335-0.598-0.832-1.059-1.489-1.382c-0.659-0.323-1.849-0.472-3.571-0.449v-1.328h11.521v22.002
			c0,3.063,0.532,5.073,1.597,6.03s2.352,1.436,3.859,1.436c1.028,0,2.194-0.322,3.499-0.969c1.304-0.646,2.854-1.878,4.648-3.697
			V44.663c0-1.867-0.341-3.128-1.023-3.787c-0.682-0.658-2.1-1.011-4.253-1.059v-1.328H496.99z"/>
		<path style="fill:#595757;" d="M524.287,66.629c-3.374,2.608-5.491,4.116-6.354,4.522c-1.292,0.599-2.668,0.897-4.127,0.897
			c-2.274,0-4.146-0.777-5.617-2.333c-1.472-1.555-2.208-3.601-2.208-6.138c0-1.603,0.359-2.99,1.077-4.163
			c0.98-1.627,2.686-3.159,5.114-4.595s6.467-3.182,12.114-5.24v-1.292c0-3.278-0.521-5.528-1.562-6.748
			c-1.041-1.221-2.555-1.831-4.54-1.831c-1.508,0-2.705,0.407-3.59,1.22c-0.909,0.814-1.363,1.747-1.363,2.8l0.071,2.082
			c0,1.101-0.281,1.951-0.844,2.548c-0.563,0.599-1.298,0.897-2.207,0.897c-0.886,0-1.609-0.311-2.172-0.934
			c-0.563-0.622-0.843-1.471-0.843-2.548c0-2.058,1.052-3.948,3.158-5.671c2.105-1.723,5.061-2.584,8.865-2.584
			c2.92,0,5.313,0.491,7.179,1.471c1.412,0.742,2.453,1.902,3.123,3.482c0.431,1.029,0.646,3.135,0.646,6.317v11.163
			c0,3.135,0.059,5.056,0.179,5.761c0.12,0.706,0.317,1.179,0.593,1.418c0.274,0.239,0.592,0.358,0.951,0.358
			c0.382,0,0.718-0.083,1.005-0.251c0.502-0.311,1.472-1.185,2.907-2.62v2.01c-2.68,3.59-5.24,5.385-7.681,5.385
			c-1.173,0-2.106-0.407-2.8-1.221C524.67,69.979,524.311,68.592,524.287,66.629z M524.287,64.296V51.77
			c-3.613,1.436-5.946,2.453-6.999,3.051c-1.891,1.054-3.243,2.153-4.056,3.302c-0.814,1.149-1.221,2.405-1.221,3.77
			c0,1.723,0.515,3.152,1.543,4.289c1.029,1.137,2.214,1.705,3.554,1.705C518.927,67.886,521.319,66.689,524.287,64.296z"/>
		<path style="fill:#595757;" d="M547.814,59.379c-2.01-0.981-3.554-2.352-4.63-4.11c-1.077-1.758-1.615-3.702-1.615-5.832
			c0-3.254,1.226-6.054,3.679-8.399c2.453-2.345,5.594-3.517,9.422-3.517c3.135,0,5.851,0.766,8.148,2.297h6.963
			c1.028,0,1.627,0.03,1.795,0.09c0.167,0.06,0.287,0.162,0.358,0.305c0.144,0.215,0.216,0.598,0.216,1.148
			c0,0.623-0.061,1.053-0.18,1.292c-0.071,0.12-0.197,0.215-0.377,0.287s-0.784,0.108-1.813,0.108h-4.271
			c1.34,1.723,2.011,3.925,2.011,6.604c0,3.063-1.173,5.684-3.518,7.861c-2.346,2.178-5.492,3.266-9.44,3.266
			c-1.627,0-3.29-0.238-4.989-0.718c-1.053,0.91-1.765,1.705-2.136,2.387c-0.371,0.683-0.556,1.263-0.556,1.741
			c0,0.407,0.197,0.802,0.592,1.185s1.167,0.658,2.315,0.825c0.669,0.097,2.345,0.18,5.024,0.252
			c4.93,0.119,8.124,0.287,9.584,0.502c2.226,0.312,4.002,1.137,5.33,2.477c1.328,1.341,1.992,2.991,1.992,4.953
			c0,2.704-1.269,5.241-3.805,7.609c-3.733,3.494-8.603,5.241-14.608,5.241c-4.619,0-8.52-1.041-11.701-3.123
			c-1.795-1.197-2.692-2.44-2.692-3.733c0-0.574,0.131-1.148,0.395-1.723c0.407-0.886,1.244-2.117,2.513-3.697
			c0.167-0.215,1.388-1.507,3.661-3.876c-1.244-0.741-2.124-1.405-2.638-1.992c-0.516-0.586-0.772-1.25-0.772-1.992
			c0-0.837,0.342-1.818,1.023-2.943C543.776,63.028,545.35,61.438,547.814,59.379z M547.456,71.367
			c-1.125,1.221-1.975,2.356-2.549,3.41c-0.574,1.053-0.861,2.021-0.861,2.907c0,1.148,0.693,2.153,2.082,3.015
			c2.393,1.483,5.851,2.226,10.373,2.226c4.307,0,7.483-0.76,9.529-2.279s3.069-3.141,3.069-4.863c0-1.245-0.61-2.13-1.831-2.656
			c-1.244-0.526-3.709-0.838-7.394-0.934C554.491,72.049,550.351,71.773,547.456,71.367z M554.061,39.243
			c-1.771,0-3.255,0.706-4.451,2.118c-1.197,1.412-1.795,3.578-1.795,6.497c0,3.782,0.813,6.712,2.441,8.794
			c1.243,1.579,2.823,2.368,4.737,2.368c1.818,0,3.314-0.682,4.487-2.046c1.172-1.363,1.758-3.505,1.758-6.425
			c0-3.805-0.825-6.784-2.477-8.937C557.542,40.032,555.975,39.243,554.061,39.243z"/>
		<path style="fill:#595757;" d="M581.965,50.872c-0.024,4.882,1.16,8.71,3.553,11.486c2.393,2.775,5.205,4.163,8.436,4.163
			c2.153,0,4.025-0.592,5.617-1.776c1.591-1.185,2.925-3.213,4.002-6.084l1.112,0.718c-0.502,3.278-1.962,6.264-4.379,8.955
			c-2.417,2.692-5.443,4.038-9.081,4.038c-3.948,0-7.328-1.537-10.14-4.612c-2.812-3.074-4.218-7.208-4.218-12.401
			c0-5.622,1.441-10.008,4.325-13.154s6.503-4.72,10.858-4.72c3.685,0,6.712,1.215,9.081,3.643c2.368,2.429,3.553,5.677,3.553,9.745
			H581.965z M581.965,48.79h15.219c-0.12-2.105-0.372-3.589-0.754-4.451c-0.599-1.34-1.49-2.393-2.675-3.158
			c-1.184-0.766-2.422-1.149-3.715-1.149c-1.986,0-3.763,0.772-5.33,2.315C583.143,43.891,582.228,46.039,581.965,48.79z"/>
		<path style="fill:#595757;" d="M649.299,70.039v1.328h-20.854v-1.328h1.724c2.01,0,3.469-0.586,4.379-1.759
			c0.574-0.766,0.861-2.607,0.861-5.527V31.31c0-2.464-0.156-4.092-0.467-4.881c-0.239-0.598-0.73-1.113-1.472-1.543
			c-1.053-0.574-2.153-0.861-3.302-0.861h-1.724v-1.328h20.854v1.328h-1.759c-1.986,0-3.434,0.586-4.343,1.759
			c-0.599,0.766-0.897,2.608-0.897,5.527v31.443c0,2.465,0.155,4.092,0.467,4.882c0.238,0.598,0.741,1.112,1.507,1.543
			c1.029,0.574,2.118,0.861,3.267,0.861H649.299z"/>
		<path style="fill:#595757;" d="M663.636,44.483c3.853-4.642,7.525-6.963,11.02-6.963c1.794,0,3.338,0.448,4.63,1.346
			s2.32,2.375,3.087,4.433c0.525,1.436,0.789,3.637,0.789,6.604v14.034c0,2.082,0.168,3.494,0.503,4.235
			c0.263,0.599,0.688,1.064,1.274,1.399c0.586,0.336,1.669,0.503,3.248,0.503v1.292h-16.26v-1.292h0.683
			c1.53,0,2.602-0.233,3.212-0.7s1.035-1.154,1.274-2.063c0.095-0.359,0.144-1.483,0.144-3.374v-13.46
			c0-2.991-0.39-5.163-1.167-6.515c-0.777-1.352-2.088-2.028-3.93-2.028c-2.849,0-5.684,1.556-8.507,4.666v17.337
			c0,2.226,0.131,3.602,0.395,4.128c0.335,0.694,0.795,1.202,1.382,1.525c0.586,0.322,1.777,0.484,3.571,0.484v1.292h-16.26v-1.292
			h0.718c1.675,0,2.806-0.425,3.393-1.274c0.586-0.849,0.879-2.471,0.879-4.863V51.733c0-3.948-0.09-6.353-0.269-7.214
			c-0.18-0.861-0.455-1.448-0.826-1.759c-0.371-0.311-0.867-0.467-1.489-0.467c-0.67,0-1.472,0.18-2.405,0.539l-0.538-1.292
			l9.906-4.02h1.544V44.483z"/>
		<path style="fill:#595757;" d="M712.718,37.52v11.199h-1.185c-0.909-3.518-2.076-5.91-3.499-7.179
			c-1.425-1.268-3.237-1.902-5.438-1.902c-1.675,0-3.027,0.443-4.056,1.328c-1.029,0.886-1.543,1.867-1.543,2.943
			c0,1.34,0.382,2.489,1.148,3.446c0.741,0.981,2.249,2.022,4.522,3.123l5.24,2.548c4.857,2.369,7.286,5.492,7.286,9.368
			c0,2.992-1.131,5.402-3.392,7.232c-2.262,1.831-4.792,2.746-7.592,2.746c-2.01,0-4.307-0.358-6.892-1.077
			c-0.789-0.238-1.436-0.358-1.938-0.358c-0.551,0-0.981,0.312-1.293,0.934h-1.185V60.133h1.185c0.67,3.351,1.95,5.874,3.841,7.573
			s4.008,2.549,6.354,2.549c1.65,0,2.997-0.485,4.038-1.454s1.561-2.136,1.561-3.5c0-1.65-0.58-3.038-1.74-4.163
			c-1.161-1.125-3.477-2.549-6.945-4.271c-3.47-1.723-5.743-3.278-6.82-4.666c-1.076-1.364-1.615-3.087-1.615-5.168
			c0-2.704,0.928-4.965,2.782-6.784c1.854-1.818,4.253-2.728,7.196-2.728c1.292,0,2.859,0.275,4.702,0.825
			c1.221,0.359,2.034,0.539,2.44,0.539c0.383,0,0.683-0.083,0.897-0.251c0.216-0.167,0.467-0.538,0.754-1.112H712.718z"/>
		<path style="fill:#595757;" d="M730.285,27.685v10.804h7.682v2.513h-7.682v21.321c0,2.13,0.305,3.565,0.915,4.307
			c0.61,0.742,1.394,1.113,2.352,1.113c0.789,0,1.555-0.245,2.297-0.736c0.741-0.49,1.315-1.214,1.723-2.171h1.4
			c-0.838,2.345-2.022,4.109-3.554,5.294s-3.111,1.776-4.738,1.776c-1.101,0-2.178-0.305-3.23-0.915s-1.83-1.483-2.333-2.62
			c-0.502-1.137-0.753-2.89-0.753-5.259v-22.11h-5.205v-1.185c1.315-0.526,2.662-1.417,4.038-2.674s2.603-2.746,3.679-4.469
			c0.551-0.909,1.316-2.572,2.298-4.989H730.285z"/>
		<path style="fill:#595757;" d="M753.238,37.52v26.417c0,2.058,0.149,3.428,0.448,4.109c0.299,0.683,0.741,1.19,1.328,1.525
			c0.586,0.336,1.657,0.503,3.213,0.503v1.292h-15.973v-1.292c1.603,0,2.68-0.155,3.23-0.467c0.55-0.311,0.987-0.825,1.31-1.543
			c0.323-0.719,0.485-2.094,0.485-4.128V51.267c0-3.565-0.108-5.874-0.323-6.927c-0.168-0.765-0.431-1.297-0.79-1.597
			c-0.358-0.299-0.85-0.449-1.472-0.449c-0.67,0-1.483,0.18-2.44,0.539l-0.503-1.292l9.907-4.02H753.238z M750.259,20.327
			c1.005,0,1.86,0.354,2.566,1.059c0.706,0.706,1.059,1.562,1.059,2.566s-0.353,1.866-1.059,2.584
			c-0.706,0.718-1.562,1.077-2.566,1.077s-1.866-0.359-2.584-1.077c-0.718-0.718-1.077-1.58-1.077-2.584s0.353-1.86,1.059-2.566
			C748.362,20.68,749.229,20.327,750.259,20.327z"/>
		<path style="fill:#595757;" d="M772.602,27.685v10.804h7.682v2.513h-7.682v21.321c0,2.13,0.305,3.565,0.915,4.307
			c0.61,0.742,1.394,1.113,2.352,1.113c0.789,0,1.555-0.245,2.297-0.736c0.741-0.49,1.315-1.214,1.723-2.171h1.4
			c-0.838,2.345-2.022,4.109-3.554,5.294s-3.111,1.776-4.738,1.776c-1.101,0-2.178-0.305-3.23-0.915s-1.83-1.483-2.333-2.62
			c-0.502-1.137-0.753-2.89-0.753-5.259v-22.11h-5.205v-1.185c1.315-0.526,2.662-1.417,4.038-2.674s2.603-2.746,3.679-4.469
			c0.551-0.909,1.316-2.572,2.298-4.989H772.602z"/>
		<path style="fill:#595757;" d="M813.034,38.489V58.41c0,3.805,0.09,6.132,0.27,6.98c0.18,0.85,0.467,1.442,0.861,1.777
			s0.855,0.502,1.382,0.502c0.741,0,1.579-0.203,2.513-0.61l0.503,1.257l-9.835,4.056h-1.615v-6.963
			c-2.824,3.063-4.978,4.989-6.461,5.778c-1.484,0.79-3.051,1.185-4.702,1.185c-1.843,0-3.44-0.532-4.792-1.597
			s-2.291-2.435-2.817-4.11c-0.526-1.675-0.79-4.044-0.79-7.106V44.878c0-1.555-0.167-2.632-0.502-3.23
			c-0.335-0.598-0.832-1.059-1.489-1.382c-0.659-0.323-1.849-0.472-3.571-0.449v-1.328h11.521v22.002
			c0,3.063,0.532,5.073,1.597,6.03s2.352,1.436,3.859,1.436c1.028,0,2.194-0.322,3.499-0.969c1.304-0.646,2.854-1.878,4.648-3.697
			V44.663c0-1.867-0.341-3.128-1.023-3.787c-0.682-0.658-2.1-1.011-4.253-1.059v-1.328H813.034z"/>
		<path style="fill:#595757;" d="M831.25,27.685v10.804h7.682v2.513h-7.682v21.321c0,2.13,0.305,3.565,0.915,4.307
			c0.61,0.742,1.394,1.113,2.352,1.113c0.789,0,1.555-0.245,2.297-0.736c0.741-0.49,1.315-1.214,1.723-2.171h1.4
			c-0.838,2.345-2.022,4.109-3.554,5.294s-3.111,1.776-4.738,1.776c-1.101,0-2.178-0.305-3.23-0.915s-1.83-1.483-2.333-2.62
			c-0.502-1.137-0.753-2.89-0.753-5.259v-22.11h-5.205v-1.185c1.315-0.526,2.662-1.417,4.038-2.674s2.603-2.746,3.679-4.469
			c0.551-0.909,1.316-2.572,2.298-4.989H831.25z"/>
		<path style="fill:#595757;" d="M848.389,50.872c-0.024,4.882,1.16,8.71,3.553,11.486c2.393,2.775,5.205,4.163,8.436,4.163
			c2.153,0,4.025-0.592,5.617-1.776c1.591-1.185,2.925-3.213,4.002-6.084l1.112,0.718c-0.502,3.278-1.962,6.264-4.379,8.955
			c-2.417,2.692-5.443,4.038-9.081,4.038c-3.948,0-7.328-1.537-10.14-4.612c-2.812-3.074-4.218-7.208-4.218-12.401
			c0-5.622,1.441-10.008,4.325-13.154s6.503-4.72,10.858-4.72c3.685,0,6.712,1.215,9.081,3.643c2.368,2.429,3.553,5.677,3.553,9.745
			H848.389z M848.389,48.79h15.219c-0.12-2.105-0.372-3.589-0.754-4.451c-0.599-1.34-1.49-2.393-2.675-3.158
			c-1.184-0.766-2.422-1.149-3.715-1.149c-1.986,0-3.763,0.772-5.33,2.315C849.566,43.891,848.651,46.039,848.389,48.79z"/>
	</g>
</g>
<polygon style="fill:#004483;" points="26.274,0 0,26.273 0,63.432 26.274,89.707 63.432,89.707 89.707,63.432 89.707,26.273 
	63.432,0 "/>
<polygon style="fill:none;stroke:#FFFFFF;stroke-width:1.318;stroke-miterlimit:10;" points="29.459,82.018 7.688,60.248 
	7.688,29.458 29.459,7.688 60.248,7.688 82.018,29.458 82.018,60.248 60.248,82.018 "/>
<rect x="19.28" y="25.764" style="fill:#FFFFFF;" width="36.695" height="9.57"/>
<rect x="50.156" y="57.008" style="fill:#FFFFFF;" width="18.516" height="9.57"/>
<rect x="32.326" y="29.881" style="fill:#FFFFFF;" width="10.602" height="36.697"/>
<rect x="58.068" y="25.763" style="fill:#FFFFFF;" width="10.604" height="29.039"/>
<rect x="45.043" y="37.494" style="fill:#FFFFFF;" width="11.041" height="29.084"/>
<polygon style="fill:#004483;" points="26.354,0 0.078,26.275 0.078,63.432 26.354,89.707 63.512,89.707 89.787,63.432 
	89.787,26.275 63.512,0 "/>
<path style="fill:#FFD900;" d="M61.38,84.563H28.484L5.222,61.303V28.405L28.484,5.143H61.38l23.262,23.262v32.898L61.38,84.563z
	 M29.109,83.055h31.646l22.379-22.376v-31.65L60.755,6.651H29.109L6.73,29.029v31.65L29.109,83.055z"/>
<rect x="20.09" y="21.906" style="fill:#FFD900;" width="36.697" height="9.568"/>
<rect x="50.968" y="54.043" style="fill:#FFD900;" width="18.514" height="9.571"/>
<rect x="33.137" y="26.021" style="fill:#FFD900;" width="10.604" height="37.592"/>
<rect x="58.881" y="21.906" style="fill:#FFD900;" width="10.602" height="29.932"/>
<rect x="45.854" y="33.635" style="fill:#FFD900;" width="11.043" height="29.979"/>
<g>
	<defs>
		<rect id="SVGID_3_" width="874.233" height="93.908"/>
	</defs>
	<clipPath id="SVGID_4_">
		<use xlink:href="#SVGID_3_"  style="overflow:visible;"/>
	</clipPath>
	<path style="clip-path:url(#SVGID_4_);fill:#FFD900;" d="M30.996,75.865h-0.869V70.32c-0.209,0.201-0.485,0.399-0.824,0.6
		c-0.342,0.199-0.647,0.35-0.916,0.449v-0.84c0.486-0.23,0.912-0.508,1.275-0.834c0.365-0.324,0.623-0.641,0.773-0.947h0.561V75.865
		z"/>
	<path style="clip-path:url(#SVGID_4_);fill:#FFD900;" d="M37.136,74.227l0.836-0.076c0.071,0.393,0.206,0.681,0.406,0.855
		c0.2,0.178,0.458,0.266,0.768,0.266c0.268,0,0.504-0.061,0.703-0.184c0.204-0.121,0.368-0.287,0.496-0.49
		c0.129-0.205,0.239-0.482,0.324-0.83c0.089-0.348,0.132-0.701,0.132-1.063c0-0.039,0-0.098-0.004-0.176
		c-0.176,0.277-0.412,0.502-0.713,0.676c-0.303,0.172-0.629,0.258-0.981,0.258c-0.588,0-1.082-0.213-1.488-0.637
		c-0.406-0.426-0.607-0.988-0.607-1.682c0-0.721,0.211-1.301,0.632-1.736c0.426-0.439,0.955-0.66,1.594-0.66
		c0.461,0,0.881,0.125,1.264,0.373c0.383,0.248,0.674,0.602,0.871,1.063c0.197,0.459,0.299,1.123,0.299,1.994
		c0,0.906-0.1,1.627-0.297,2.164c-0.197,0.535-0.488,0.944-0.877,1.225c-0.389,0.283-0.844,0.42-1.366,0.42
		c-0.554,0-1.007-0.152-1.359-0.461C37.418,75.219,37.207,74.785,37.136,74.227 M40.699,71.1c0-0.5-0.133-0.896-0.398-1.189
		c-0.266-0.293-0.586-0.439-0.961-0.439c-0.387,0-0.723,0.156-1.01,0.473s-0.43,0.727-0.43,1.229c0,0.451,0.135,0.818,0.408,1.1
		c0.272,0.283,0.608,0.422,1.008,0.422c0.404,0,0.735-0.139,0.994-0.422C40.57,71.99,40.699,71.6,40.699,71.1"/>
	<path style="clip-path:url(#SVGID_4_);fill:#FFD900;" d="M47.004,74.01l0.914-0.076c0.066,0.443,0.225,0.779,0.471,1.002
		c0.246,0.225,0.545,0.336,0.892,0.336c0.418,0,0.774-0.157,1.065-0.473c0.289-0.316,0.435-0.736,0.435-1.258
		c0-0.496-0.138-0.889-0.418-1.174c-0.279-0.286-0.644-0.432-1.095-0.432c-0.282,0-0.535,0.064-0.758,0.191
		c-0.229,0.129-0.404,0.293-0.535,0.496l-0.817-0.107l0.686-3.641h3.527v0.832h-2.83l-0.381,1.904
		c0.426-0.297,0.871-0.445,1.338-0.445c0.619,0,1.143,0.215,1.567,0.645c0.427,0.43,0.64,0.979,0.64,1.652
		c0,0.641-0.187,1.197-0.56,1.664c-0.455,0.574-1.077,0.859-1.864,0.859c-0.644,0-1.17-0.18-1.578-0.54
		C47.295,75.086,47.063,74.605,47.004,74.01"/>
	<path style="clip-path:url(#SVGID_4_);fill:#FFD900;" d="M61.563,70.514l-0.865,0.068c-0.079-0.342-0.188-0.59-0.329-0.744
		c-0.236-0.25-0.527-0.373-0.869-0.373c-0.279,0-0.521,0.078-0.732,0.23c-0.272,0.203-0.488,0.492-0.649,0.877
		c-0.158,0.385-0.24,0.93-0.244,1.639c0.207-0.318,0.463-0.555,0.768-0.711c0.301-0.154,0.619-0.232,0.951-0.232
		c0.584,0,1.074,0.215,1.482,0.641c0.411,0.428,0.614,0.98,0.614,1.656c0,0.445-0.096,0.859-0.289,1.242
		c-0.192,0.381-0.457,0.672-0.789,0.875c-0.336,0.205-0.719,0.305-1.143,0.305c-0.723,0-1.316-0.266-1.775-0.799
		c-0.457-0.533-0.686-1.412-0.686-2.637c0-1.37,0.254-2.367,0.76-2.99c0.441-0.541,1.035-0.813,1.783-0.813
		c0.557,0,1.016,0.158,1.373,0.471C61.278,69.533,61.492,69.963,61.563,70.514 M58.01,73.57c0,0.299,0.062,0.586,0.191,0.86
		c0.127,0.274,0.303,0.485,0.532,0.626c0.23,0.145,0.47,0.215,0.722,0.215c0.367,0,0.684-0.148,0.946-0.445
		c0.267-0.295,0.398-0.697,0.398-1.209c0-0.49-0.131-0.875-0.393-1.156c-0.259-0.283-0.587-0.424-0.986-0.424
		c-0.392,0-0.726,0.141-0.998,0.424C58.147,72.742,58.01,73.113,58.01,73.57"/>
</g>
</svg>
